<svg xmlns="http://www.w3.org/2000/svg" xmlns:xlink="http://www.w3.org/1999/xlink" width="318" zoomAndPan="magnify" viewBox="0 0 238.5 238.499992" height="318" preserveAspectRatio="xMidYMid meet" version="1.0"><defs><clipPath id="dd15b2d833"><path d="M 40 0 L 114 0 L 114 237.253906 L 40 237.253906 Z M 40 0 " clip-rule="nonzero"/></clipPath></defs><path fill="#ffffff" d="M 129.359375 133.40625 L 137.523438 236.863281 L 189.261719 236.863281 L 197.429688 133.40625 Z M 182.964844 230.058594 L 143.8125 230.058594 L 136.71875 140.207031 L 190.058594 140.207031 Z M 182.964844 230.058594 " fill-opacity="1" fill-rule="nonzero"/><path fill="#ffffff" d="M 148.847656 224.617188 L 177.933594 224.617188 L 182.339844 168.800781 L 144.445312 168.800781 Z M 148.847656 224.617188 " fill-opacity="1" fill-rule="nonzero"/><path fill="#ffffff" d="M 77.15625 144.53125 L 72.640625 153.691406 L 62.535156 155.160156 L 69.847656 162.285156 L 68.117188 172.347656 L 77.15625 167.597656 L 86.199219 172.347656 L 84.46875 162.285156 L 91.78125 155.160156 L 81.679688 153.691406 Z M 77.15625 144.53125 " fill-opacity="1" fill-rule="nonzero"/><g clip-path="url(#dd15b2d833)"><path fill="#ffffff" d="M 97.625 68.046875 C 95.394531 65.257812 90.929688 22.867188 90.929688 22.867188 C 90.015625 16.914062 90.230469 16.21875 91.570312 13.386719 L 91.808594 13.386719 C 95.507812 13.386719 98.503906 10.386719 98.503906 6.695312 C 98.503906 2.996094 95.507812 0 91.808594 0 L 62.164062 0 C 58.46875 0 55.46875 2.996094 55.46875 6.695312 C 55.46875 10.390625 58.46875 13.386719 62.164062 13.386719 L 62.40625 13.386719 C 63.746094 16.21875 63.960938 16.914062 63.042969 22.867188 C 63.042969 22.867188 58.582031 65.257812 56.351562 68.046875 C 53.046875 72.175781 40.175781 74.179688 40.175781 98.164062 C 40.175781 117.683594 40.175781 224.953125 40.175781 224.953125 C 40.175781 231.941406 45.835938 237.601562 52.824219 237.601562 L 101.148438 237.601562 C 108.136719 237.601562 113.796875 231.941406 113.796875 224.953125 C 113.796875 224.953125 113.796875 117.683594 113.796875 98.164062 C 113.796875 74.179688 100.929688 72.175781 97.625 68.046875 Z M 108.964844 169 L 98.511719 169 C 95.457031 183.101562 87.054688 193.234375 77.160156 193.234375 C 67.265625 193.234375 58.859375 183.101562 55.808594 169 L 45.007812 169 L 45.007812 151.894531 L 54.820312 151.894531 C 56.449219 134.578125 65.832031 121.289062 77.160156 121.289062 C 88.492188 121.289062 97.867188 134.578125 99.496094 151.894531 L 108.964844 151.894531 Z M 108.964844 169 " fill-opacity="1" fill-rule="nonzero"/></g></svg>