<svg xmlns="http://www.w3.org/2000/svg" xmlns:xlink="http://www.w3.org/1999/xlink" width="318" zoomAndPan="magnify" viewBox="0 0 238.5 238.499992" height="318" preserveAspectRatio="xMidYMid meet" version="1.0"><path fill="#ffffff" d="M 207.902344 74.25 L 200.328125 74.25 C 199.734375 66.453125 195.207031 59.625 188.152344 56.058594 L 185.628906 54.796875 L 185.628906 29.699219 C 185.628906 25.617188 182.285156 22.273438 178.203125 22.273438 L 153.550781 22.273438 L 155.40625 17.597656 C 156.964844 13.8125 155.109375 9.503906 151.25 7.945312 C 147.460938 6.460938 143.15625 8.242188 141.597656 12.101562 L 137.511719 22.273438 L 59.402344 22.273438 C 55.316406 22.273438 51.976562 25.617188 51.976562 29.699219 L 51.976562 54.796875 L 49.453125 56.058594 C 41.878906 59.847656 37.125 67.496094 37.125 76.03125 L 37.125 193.054688 C 37.125 213.546875 53.757812 230.179688 74.25 230.179688 L 163.351562 230.179688 C 181.246094 230.179688 196.246094 217.40625 199.734375 200.476562 L 207.902344 200.476562 C 220.15625 200.476562 230.179688 190.453125 230.179688 178.203125 L 230.179688 96.527344 C 230.179688 84.273438 220.15625 74.25 207.902344 74.25 Z M 126.746094 49.226562 C 126.375 50.121094 126.226562 51.011719 126.226562 51.976562 L 126.226562 114.125 C 124.890625 113.457031 123.554688 112.863281 122.144531 112.195312 C 90.585938 96.378906 65.710938 101.203125 51.976562 106.699219 L 51.976562 76.03125 C 51.976562 73.210938 53.535156 70.6875 56.058594 69.425781 L 62.667969 66.082031 C 65.265625 64.820312 66.824219 62.222656 66.824219 59.402344 L 66.824219 37.125 L 131.574219 37.125 Z M 185.628906 81.675781 L 185.628906 114.347656 C 185.109375 114.644531 184.515625 114.941406 183.996094 115.238281 C 173.671875 121.027344 163.054688 126.894531 141.078125 119.988281 L 141.078125 53.386719 L 147.609375 37.125 L 170.777344 37.125 L 170.777344 59.402344 C 170.777344 62.222656 172.335938 64.820312 174.859375 66.007812 L 181.46875 69.351562 C 184.070312 70.613281 185.628906 73.136719 185.628906 76.03125 Z M 215.328125 178.203125 C 215.328125 182.285156 211.988281 185.628906 207.902344 185.628906 L 200.476562 185.628906 L 200.476562 89.101562 L 207.902344 89.101562 C 211.988281 89.101562 215.328125 92.441406 215.328125 96.527344 Z M 215.328125 178.203125 " fill-opacity="1" fill-rule="nonzero"/></svg>